<?xml version="1.0" encoding="UTF-8"?><svg id="Layer_2" xmlns="http://www.w3.org/2000/svg" viewBox="0 0 502.23 73.78"><g id="Layer_1-2"><path d="m499.2,32.02c-2.02-3.74-4.88-6.65-8.59-8.74-3.71-2.08-8.08-3.13-13.11-3.13-4.57,0-8.87,1.04-12.91,3.13-4.04,2.09-7.27,5.1-9.68,9.04-2.42,3.94-3.62,8.82-3.62,14.65,0,5.3,1.26,9.85,3.77,13.65,2.51,3.81,5.97,6.74,10.38,8.79,4.4,2.05,9.48,3.08,15.24,3.08h15.99v-13.7h-17.08c-1.85,0-3.51-.23-4.97-.69-1.46-.46-2.67-1.19-3.62-2.19-.96-.99-1.57-2.18-1.84-3.57h32.47c.2-.93.35-2.08.45-3.48.1-1.39.15-2.58.15-3.57,0-5.1-1.01-9.52-3.03-13.26Zm-30.73,10.28c.13-1.19.41-2.3.84-3.32.43-1.03,1.01-1.94,1.74-2.73.73-.79,1.62-1.41,2.68-1.84,1.06-.43,2.28-.65,3.67-.65,1.13,0,2.14.15,3.03.45.89.3,1.65.7,2.28,1.19.63.5,1.21,1.11,1.74,1.84.53.73.91,1.51,1.14,2.33.23.83.35,1.74.35,2.73h-17.48Z"/><path d="m102.73,23.54c-4.2-2.32-8.92-3.48-14.15-3.48s-9.85,1.16-14.05,3.48c-4.2,2.32-7.55,5.5-10.03,9.53-2.48,4.04-3.72,8.67-3.72,13.9s1.24,9.76,3.72,13.8c2.48,4.04,5.82,7.2,10.03,9.48,4.2,2.28,8.89,3.43,14.05,3.43s9.86-1.14,14.1-3.43c4.24-2.28,7.6-5.44,10.08-9.48,2.48-4.04,3.72-8.67,3.72-13.9s-1.24-9.76-3.72-13.8c-2.48-4.04-5.83-7.22-10.03-9.53Zm-4.82,29.24c-.86,1.76-2.09,3.13-3.67,4.12-1.59.99-3.48,1.49-5.66,1.49s-3.97-.5-5.56-1.49c-1.59-.99-2.83-2.37-3.72-4.12-.89-1.75-1.34-3.72-1.34-5.91s.45-4.24,1.34-5.96c.89-1.72,2.13-3.08,3.72-4.07,1.59-.99,3.44-1.49,5.56-1.49s4.07.5,5.66,1.49c1.59.99,2.81,2.35,3.67,4.07.86,1.72,1.29,3.71,1.29,5.96s-.43,4.15-1.29,5.91Z"/><path d="m38.53,26.12h-.4c-.99-1.32-2.2-2.43-3.62-3.33-1.42-.9-2.98-1.56-4.67-1.99-1.69-.43-3.49-.65-5.41-.65-4.63,0-8.81,1.08-12.51,3.23-3.71,2.15-6.62,5.18-8.74,9.09-2.12,3.91-3.18,8.48-3.18,13.7,0,3.97.65,7.65,1.94,11.02,1.29,3.38,3.16,6.31,5.61,8.79,2.45,2.48,5.38,4.4,8.79,5.76,3.41,1.36,7.27,2.04,11.57,2.04,5.63,0,10.53-1.16,14.7-3.48,4.17-2.32,7.41-5.56,9.73-9.73,2.32-4.17,3.48-9.04,3.48-14.6V0h-17.28v26.12Zm-1.54,26.91c-.83,1.79-2.02,3.18-3.57,4.17-1.56.99-3.39,1.49-5.51,1.49s-3.86-.5-5.41-1.49c-1.56-.99-2.76-2.38-3.62-4.17-.86-1.79-1.29-3.81-1.29-6.06s.43-4.15,1.29-5.91c.86-1.75,2.07-3.13,3.62-4.12,1.56-.99,3.36-1.49,5.41-1.49s3.94.5,5.46,1.49c1.52.99,2.71,2.37,3.57,4.12.86,1.76,1.29,3.72,1.29,5.91s-.41,4.27-1.24,6.06Z"/><path d="m222.79,23.54c-4.2-2.32-8.92-3.48-14.15-3.48s-9.85,1.16-14.05,3.48c-4.2,2.32-7.55,5.5-10.03,9.53-2.48,4.04-3.72,8.67-3.72,13.9s1.24,9.76,3.72,13.8c2.48,4.04,5.82,7.2,10.03,9.48,4.2,2.28,8.89,3.43,14.05,3.43s9.86-1.14,14.1-3.43c4.24-2.28,7.6-5.44,10.08-9.48,2.48-4.04,3.72-8.67,3.72-13.9s-1.24-9.76-3.72-13.8c-2.48-4.04-5.83-7.22-10.03-9.53Zm-4.82,29.24c-.86,1.76-2.09,3.13-3.67,4.12-1.59.99-3.48,1.49-5.66,1.49s-3.97-.5-5.56-1.49c-1.59-.99-2.83-2.37-3.72-4.12-.89-1.75-1.34-3.72-1.34-5.91s.45-4.24,1.34-5.96c.89-1.72,2.13-3.08,3.72-4.07,1.59-.99,3.44-1.49,5.56-1.49s4.07.5,5.66,1.49c1.59.99,2.81,2.35,3.67,4.07.86,1.72,1.29,3.71,1.29,5.96s-.43,4.15-1.29,5.91Z"/><path d="m162.66,23.09c-3.84-2.02-8.41-3.03-13.7-3.03s-9.92,1.01-13.85,3.03c-3.94,2.02-6.99,4.77-9.14,8.24-2.15,3.48-3.23,7.4-3.23,11.77v29.39h17.28v-28.6c0-1.59.36-3.01,1.09-4.27.73-1.26,1.75-2.29,3.08-3.08,1.32-.79,2.85-1.19,4.57-1.19s3.13.38,4.42,1.14,2.3,1.8,3.03,3.13c.73,1.32,1.09,2.75,1.09,4.27v28.6h17.18v-29.39c0-4.37-1.01-8.29-3.03-11.77-2.02-3.48-4.95-6.22-8.79-8.24Z"/><path d="m315.74,56.01c0,.73-.17,1.36-.5,1.89-.33.53-.78.96-1.34,1.29-.56.33-1.18.5-1.84.5-.6,0-1.18-.16-1.74-.5-.56-.33-1.01-.76-1.34-1.29-.33-.53-.5-1.16-.5-1.89v-16.28c0-4.24-.96-7.81-2.88-10.73-1.92-2.91-4.45-5.13-7.6-6.65-3.15-1.52-6.64-2.29-10.48-2.29s-7.17.76-10.38,2.29c-3.21,1.52-5.76,3.74-7.65,6.65-1.89,2.91-2.83,6.49-2.83,10.73v16.28c0,.73-.17,1.36-.5,1.89-.33.53-.76.96-1.29,1.29-.53.33-1.13.5-1.79.5s-1.28-.15-1.84-.45c-.56-.3-.99-.73-1.29-1.29-.3-.56-.45-1.21-.45-1.94V21.35h-17.28v32.87c0,4.3.99,7.91,2.98,10.82,1.99,2.91,4.57,5.1,7.75,6.55,3.18,1.45,6.55,2.18,10.13,2.18s7.03-.73,10.18-2.18c3.14-1.46,5.69-3.64,7.65-6.55,1.95-2.91,2.93-6.52,2.93-10.82v-16.39c0-.79.18-1.45.55-1.99.36-.53.83-.96,1.39-1.29.56-.33,1.14-.5,1.74-.5.73,0,1.36.17,1.89.5.53.33.96.76,1.29,1.29.33.53.5,1.19.5,1.99v16.39c0,4.3.99,7.91,2.98,10.82,1.99,2.91,4.57,5.1,7.75,6.55,3.18,1.45,6.55,2.18,10.13,2.18s7.07-.73,10.28-2.18c3.21-1.46,5.79-3.64,7.75-6.55,1.95-2.91,2.93-6.52,2.93-10.82V21.35h-17.28v34.66Z"/><path d="m381.57,23.58c-4.07-2.28-8.95-3.43-14.65-3.43s-10.66,1.18-14.9,3.53c-4.24,2.35-7.51,5.61-9.83,9.78-2.32,4.17-3.48,8.9-3.48,14.2s.96,9.58,2.88,13.46c1.92,3.87,4.62,6.95,8.09,9.23,3.48,2.28,7.4,3.43,11.77,3.43,2.78,0,5.2-.4,7.25-1.19,2.05-.79,3.79-1.89,5.21-3.28,1.42-1.39,2.56-2.98,3.43-4.77h.5v7.95h16.58v-25.42c0-5.23-1.13-9.88-3.38-13.95-2.25-4.07-5.41-7.25-9.48-9.53Zm-5.86,29.44c-.83,1.79-2.04,3.19-3.62,4.22-1.59,1.03-3.41,1.54-5.46,1.54s-3.77-.51-5.36-1.54c-1.59-1.03-2.81-2.43-3.67-4.22-.86-1.79-1.29-3.81-1.29-6.06s.43-4.24,1.29-5.96c.86-1.72,2.07-3.08,3.62-4.07,1.56-.99,3.36-1.49,5.41-1.49s3.94.51,5.46,1.54c1.52,1.03,2.71,2.38,3.57,4.07.86,1.69,1.29,3.66,1.29,5.91s-.41,4.27-1.24,6.06Z"/><path d="m433.51,21.35l-9.04,34.96c0,.27-.07.48-.2.65-.13.17-.3.25-.5.25s-.36-.08-.5-.25c-.13-.16-.23-.38-.3-.65l-8.94-34.96h-18.87l14.4,43.4c1.06,2.85,2.86,5.06,5.41,6.65,2.55,1.59,5.41,2.38,8.59,2.38s6.04-.79,8.59-2.38c2.55-1.59,4.32-3.84,5.31-6.75l14.5-43.3h-18.47Z"/></g></svg>